<svg xmlns="http://www.w3.org/2000/svg" viewBox="0 0 283.46 283.46"><defs><style>.cls-1{fill:#255c86;}</style></defs><g id="Layer_26" data-name="Layer 26"><path class="cls-1" d="M139.11,128.1A30.31,30.31,0,1,0,108.8,97.79,30.35,30.35,0,0,0,139.11,128.1Zm0-53.62A23.31,23.31,0,1,1,115.8,97.79,23.33,23.33,0,0,1,139.11,74.48Z"/><path class="cls-1" d="M195.09,141.11a21.63,21.63,0,1,0-21.63-21.62A21.65,21.65,0,0,0,195.09,141.11Zm0-36.25a14.63,14.63,0,1,1-14.63,14.63A14.64,14.64,0,0,1,195.09,104.86Z"/><path class="cls-1" d="M83.14,141.11a21.63,21.63,0,1,0-21.63-21.62A21.65,21.65,0,0,0,83.14,141.11Zm0-36.25a14.63,14.63,0,1,1-14.63,14.63A14.64,14.64,0,0,1,83.14,104.86Z"/><path class="cls-1" d="M207.75,147.21H182.43a20.8,20.8,0,0,0-4.18.43,20.8,20.8,0,0,0-19.46-13.53H119.43A20.81,20.81,0,0,0,100,147.64a20.7,20.7,0,0,0-4.17-.43H70.48A20.81,20.81,0,0,0,49.69,168v47.05H228.54V168A20.82,20.82,0,0,0,207.75,147.21ZM98.64,208.05H56.69V168a13.8,13.8,0,0,1,13.79-13.79H95.8a13.49,13.49,0,0,1,2.84.3v53.54Zm73.94,0H105.64V154.9c0-.38,0-.76.06-1.14s.08-.75.15-1.16l.1-.58a13.81,13.81,0,0,1,13.48-10.91h39.36A13.8,13.8,0,0,1,172.27,152l.1.59c.07.41.12.8.16,1.17s.05.75.05,1.13Zm49,0h-42V154.51a13.52,13.52,0,0,1,2.85-.3h25.32A13.81,13.81,0,0,1,221.54,168Z"/></g></svg>
