<svg xmlns="http://www.w3.org/2000/svg" viewBox="0 0 283.46 283.46"><defs><style>.cls-1{fill:#255c86;}</style></defs><g id="Layer_26" data-name="Layer 26"><path class="cls-1" d="M212,55H97.37a10.91,10.91,0,0,0-10.9,10.9V92.3L82,85.8a8,8,0,0,0-10.74-2.29S61,89.8,57.39,92c-2.71,1.68-5.92,6.56-6.38,11.16-.92,9.12-1,19.41,4.73,32.86C61,148.33,76.19,167.8,87.9,179.51s31.17,26.93,43.48,32.16a61,61,0,0,0,24.54,5.19c2.91,0,5.67-.2,8.33-.46,4.59-.47,9.48-3.67,11.15-6.38,2.2-3.56,8.49-13.86,8.49-13.86a8,8,0,0,0-2.29-10.75l-28.67-19.73a8,8,0,0,0-10.76,1.58l-8.29,10.35a2.93,2.93,0,0,1-3.75.73,111.51,111.51,0,0,1-23.2-17.86h0l-.71-.72H212a10.92,10.92,0,0,0,10.9-10.91v-83A10.91,10.91,0,0,0,212,55ZM126.66,184.42A9.9,9.9,0,0,0,139.34,182l8.29-10.35a1,1,0,0,1,1.33-.19l28.68,19.73a1,1,0,0,1,.27,1.33s-6.26,10.27-8.46,13.82a10.41,10.41,0,0,1-5.9,3.1c-7.64.77-16.83,1.14-29.43-4.21-11.38-4.82-30.28-19.67-41.27-30.66S67,144.66,62.18,133.28c-5.35-12.6-5-21.79-4.21-29.42A10.41,10.41,0,0,1,61.07,98c3.55-2.19,13.82-8.46,13.83-8.46a1,1,0,0,1,1.32.28L96,118.44a1,1,0,0,1-.2,1.33l-10.35,8.29A9.91,9.91,0,0,0,83,140.74a120.77,120.77,0,0,0,43.68,43.68Zm89.25-35.57a3.91,3.91,0,0,1-3.9,3.91H99.88a108.47,108.47,0,0,1-10.82-15.48,2.94,2.94,0,0,1,.73-3.75l10.35-8.3a8,8,0,0,0,1.58-10.76l-8.25-12V65.87a3.91,3.91,0,0,1,3.9-3.9H212a3.91,3.91,0,0,1,3.9,3.9Z"/><path class="cls-1" d="M209.2,68.9a3.49,3.49,0,0,0-4.89-.73L158,102.5a5.52,5.52,0,0,1-6.57,0l-47.1-34.38a3.5,3.5,0,1,0-4.12,5.66l47.09,34.37a12.49,12.49,0,0,0,14.87-.05l46.35-34.34A3.49,3.49,0,0,0,209.2,68.9Z"/><path class="cls-1" d="M179.55,109.92a3.5,3.5,0,1,0-5.05,4.85l31.15,32.42a3.5,3.5,0,1,0,5-4.85Z"/><path class="cls-1" d="M130.85,109.92,99.7,142.34a3.5,3.5,0,1,0,5,4.85l31.14-32.42a3.5,3.5,0,1,0-5-4.85Z"/></g></svg>
