<svg xmlns="http://www.w3.org/2000/svg" viewBox="0 0 283.46 283.46"><defs><style>.cls-1{fill:#255c86;}</style></defs><g id="Layer_26" data-name="Layer 26"><path class="cls-1" d="M195.23,217.46H171.44a11.07,11.07,0,0,1-11.05-11.05V174.2a9.09,9.09,0,0,0-9.08-9.08H133.1a9.3,9.3,0,0,0-9.29,9.28v32a11.07,11.07,0,0,1-11,11.05H89a11.06,11.06,0,0,1-11-11.05V153.08A4.06,4.06,0,0,0,73.88,149H67.94a11,11,0,0,1-7.81-18.86L134.29,56a11,11,0,0,1,15.63,0l74.16,74.16A11.05,11.05,0,0,1,216.26,149h-5.93a4.06,4.06,0,0,0-4.05,4.05v53.33A11.07,11.07,0,0,1,195.23,217.46ZM133.1,158.12h18.21a16.09,16.09,0,0,1,16.08,16.08v32.21a4.06,4.06,0,0,0,4.05,4.05h23.79a4.06,4.06,0,0,0,4.05-4.05V153.08A11.07,11.07,0,0,1,210.33,142h5.93a4,4,0,0,0,2.87-6.91L145,61a4,4,0,0,0-5.73,0L65.08,135.12A4,4,0,0,0,67.94,142h5.94a11.07,11.07,0,0,1,11.05,11.05v53.33a4.05,4.05,0,0,0,4,4.05h23.78a4.06,4.06,0,0,0,4-4.05v-32A16.3,16.3,0,0,1,133.1,158.12Z"/></g></svg>
