<svg xmlns="http://www.w3.org/2000/svg" viewBox="0 0 535.4 174.64"><defs><style>.cls-1{fill:#255c85;}.cls-2{fill:#82c162;}</style></defs><g id="Layer_26" data-name="Layer 26"><path class="cls-1" d="M240.43,30.15H271.9a90.81,90.81,0,0,1,13.94.78,20.49,20.49,0,0,1,8.22,3.25,20.18,20.18,0,0,1,6,6.58A17.84,17.84,0,0,1,302.52,50a18.66,18.66,0,0,1-11.07,17.08,20.79,20.79,0,0,1,11.07,7.14,19,19,0,0,1,3.87,11.87,23.48,23.48,0,0,1-2.5,10.45,21.11,21.11,0,0,1-6.82,8.11,22.55,22.55,0,0,1-10.66,3.73q-4,.44-19.18.54h-26.8Zm15.9,13.1V61.46h10.42q9.28,0,11.55-.27a10.44,10.44,0,0,0,6.41-2.82,8.28,8.28,0,0,0,2.34-6.15,8.64,8.64,0,0,0-2-5.93,9.18,9.18,0,0,0-6-2.77q-2.37-.27-13.59-.27Zm0,31.32V95.62H271A72.53,72.53,0,0,0,282,95.14,9.86,9.86,0,0,0,287.72,92,9.67,9.67,0,0,0,290,85.31a10.27,10.27,0,0,0-1.72-6,9.69,9.69,0,0,0-5-3.59q-3.24-1.14-14.1-1.13Z"/><path class="cls-1" d="M323,108.89V30.15h15.9v78.74Z"/><path class="cls-1" d="M357.85,108.89V30.15h15.9v35l32.12-35h21.37L397.6,60.82l31.26,48.07H408.28L386.64,71.94,373.75,85.1v23.79Z"/><path class="cls-1" d="M440.7,108.89V30.15h58.39V43.47H456.6V60.93h39.53V74.19H456.6V95.62h44v13.27Z"/><path class="cls-1" d="M257.25,144.15h-3.7v-2.21a6,6,0,0,1-2.17,1.92,5.6,5.6,0,0,1-2.53.63,5.73,5.73,0,0,1-4.44-2.09,8.5,8.5,0,0,1-1.85-5.83,8.39,8.39,0,0,1,1.8-5.81,5.85,5.85,0,0,1,4.55-2,5.63,5.63,0,0,1,4.36,2.1v-7.48h4Zm-10.62-7.85a7,7,0,0,0,.66,3.49,3,3,0,0,0,2.69,1.56,2.92,2.92,0,0,0,2.34-1.17,5.4,5.4,0,0,0,1-3.49,5.91,5.91,0,0,0-.93-3.73,3.08,3.08,0,0,0-4.77,0A5.12,5.12,0,0,0,246.63,136.3Z"/><path class="cls-1" d="M265.93,144.15h-4v-15h3.69v2.14a6.34,6.34,0,0,1,1.71-2,3.14,3.14,0,0,1,1.72-.48,5.07,5.07,0,0,1,2.62.75L270.47,133a3.54,3.54,0,0,0-1.87-.65,2.2,2.2,0,0,0-1.42.46,3.12,3.12,0,0,0-.91,1.66,23.69,23.69,0,0,0-.34,5Z"/><path class="cls-1" d="M274.37,127.07v-3.68h4v3.68Zm0,17.08v-15h4v15Z"/><path class="cls-1" d="M287.52,144.15l-6.06-15h4.17l2.84,7.68.82,2.56c.21-.65.35-1.08.41-1.29.13-.42.27-.85.42-1.27l2.86-7.68h4.1l-6,15Z"/><path class="cls-1" d="M309.18,139.36l4,.67a6.51,6.51,0,0,1-2.41,3.32,7.1,7.1,0,0,1-4.13,1.14,6.76,6.76,0,0,1-5.81-2.56,8.63,8.63,0,0,1-1.48-5.19,8.3,8.3,0,0,1,1.95-5.85,6.44,6.44,0,0,1,4.94-2.12,6.67,6.67,0,0,1,5.3,2.22c1.29,1.47,1.91,3.74,1.85,6.79h-10a4,4,0,0,0,1,2.75,3,3,0,0,0,2.29,1,2.43,2.43,0,0,0,1.57-.51A3.14,3.14,0,0,0,309.18,139.36Zm.22-4a3.83,3.83,0,0,0-.89-2.63,2.89,2.89,0,0,0-4.22,0,3.68,3.68,0,0,0-.83,2.58Z"/><path class="cls-1" d="M340.25,144.15h-4v-7.68a11.81,11.81,0,0,0-.26-3.15,2.22,2.22,0,0,0-.83-1.11,2.38,2.38,0,0,0-1.38-.39,3.16,3.16,0,0,0-1.85.56,2.9,2.9,0,0,0-1.13,1.5,13.24,13.24,0,0,0-.3,3.46v6.81h-4v-15h3.7v2.21a6,6,0,0,1,4.95-2.55,5.93,5.93,0,0,1,2.41.48,4,4,0,0,1,1.65,1.21,4.43,4.43,0,0,1,.78,1.67,12.76,12.76,0,0,1,.22,2.67Z"/><path class="cls-1" d="M344.32,136.42a8.06,8.06,0,0,1,1-3.84,6.67,6.67,0,0,1,2.76-2.83,8.26,8.26,0,0,1,4-1,7.52,7.52,0,0,1,5.6,2.22,7.65,7.65,0,0,1,2.18,5.6,7.76,7.76,0,0,1-2.2,5.65,7.45,7.45,0,0,1-5.55,2.25,8.63,8.63,0,0,1-3.94-.94,6.35,6.35,0,0,1-2.85-2.74A9,9,0,0,1,344.32,136.42Zm4.08.21a5,5,0,0,0,1.06,3.43,3.39,3.39,0,0,0,2.62,1.19,3.35,3.35,0,0,0,2.61-1.19,5.1,5.1,0,0,0,1.06-3.46,5,5,0,0,0-1.06-3.4,3.35,3.35,0,0,0-2.61-1.19,3.39,3.39,0,0,0-2.62,1.19A5,5,0,0,0,348.4,136.63Z"/><path class="cls-1" d="M366.71,144.15l-4.75-15h3.86l2.82,9.86,2.59-9.86h3.84l2.5,9.86,2.88-9.86h3.92l-4.83,15h-3.82l-2.59-9.67-2.55,9.67Z"/><path class="cls-2" d="M222.74,108v-5.45h-1c0-.38,0-.76-.09-1.14l.92-.16-1-5.37-.92.16c-.1-.37-.2-.74-.31-1.1l.89-.33-1.86-5.12-.92.33c-.16-.34-.31-.69-.48-1l.85-.49-2.73-4.72-.88.51-.66-.93.79-.66-3.51-4.17-.82.69c-.26-.27-.54-.52-.81-.78l.71-.84-4.18-3.5-.74.87-.91-.63.58-1L201,70.41l-.61,1-1-.46.42-1.15L194.72,68l-.44,1.21-1.05-.26.23-1.29-5.37-1-.24,1.37L186.78,68v-1.4h-5.45v1.47l-1.05.1L180,66.7l-5.37,1,.27,1.52-1,.29L173.39,68l-4.27,1.55-9.83-22c.09-.25.19-.51.3-.79.22-.59.47-1.28.8-2.07C161.05,43,161.58,41.9,162,41a10.22,10.22,0,0,0,1.28-4c.15-1.57.34-3.72-1-4.87-1.05-.88-2.5-.67-4.89-.32a12.69,12.69,0,0,0-2.92.71,9.58,9.58,0,0,1-2.39.58c-.53.07-1,.11-1.49.14a12.63,12.63,0,0,0-4.05.84c-1.21.48-1.72.9-1.77,1.46A1.77,1.77,0,0,0,146,37.74a9.47,9.47,0,0,0,4.12-.2,9.71,9.71,0,0,1,1.15-.19,2.39,2.39,0,0,1-.54.65c-.15.14-.62.56-2.59.68-.68,0-1.19,0-1.57,0-.63,0-1,0-1.2.36a.64.64,0,0,0,0,.52,3.26,3.26,0,0,0,1.71,1.36,5.06,5.06,0,0,0,3.93-.39,12.62,12.62,0,0,0,2.63-1.92c.61-.52.91-.81,1.13-1a3.56,3.56,0,0,1,.65-.53c1-.63,2.63-1.37,3.29-.84a1.55,1.55,0,0,1,.39,1.05,4.27,4.27,0,0,1-.78,2.61,11.55,11.55,0,0,1-2,3.15l-.49.49a15.26,15.26,0,0,0-1.5,1.58,3,3,0,0,0-1,3.67l.92,2L104.14,75,94.72,44.83,97,44.28a16.78,16.78,0,0,1,4.33-.73,12.27,12.27,0,0,1,3.94.3,14.06,14.06,0,0,1,1.58.58c1,.4,1.79.74,2.57.23a2.13,2.13,0,0,0,.76-2.34,2.91,2.91,0,0,0-2.39-2c-2.61-.11-6.77-.14-6.81-.14-3.08,0-5.65,0-10.32,0H89.42c-3.66,0-6.09,0-7.4-.08-.64,0-1,0-1.24,0s-.78,0-1.27,0a14.56,14.56,0,0,0-1.74,0,.82.82,0,0,0-.69.51,2,2,0,0,0,.44,1.72,2,2,0,0,0,1.64.55,5.62,5.62,0,0,1,.57,0,4.22,4.22,0,0,1,1.82.69l.69.38a14.45,14.45,0,0,0,5.21,1.64l.16,0a8.6,8.6,0,0,0,1.4.11,12.86,12.86,0,0,0,1.77-.13l9.85,31.55-5,3.78-2.13-2.54-.83.69c-.26-.27-.53-.52-.8-.78l.7-.84L88.41,74l-.73.87-.92-.63.58-1-4.72-2.72-.61,1-1-.46L81.43,70l-5.12-1.86-.45,1.21-1-.26L75,67.75l-5.37-1-.24,1.37-1.07-.08v-1.4H62.91v1.47l-1,.1L61.6,66.8l-5.36,1,.27,1.52-1,.29L55,68.09,49.85,70l.55,1.53-.92.45-.82-1.42-4.72,2.72.85,1.48L44,75.3,42.86,74l-4.17,3.5,1.14,1.36c-.24.23-.47.48-.7.72l-1.37-1.15-3.51,4.17,1.41,1.18c-.19.27-.39.54-.57.81l-1.59-.91-2.72,4.72,1.61.93-.41.9-1.76-.64L28.36,94.7l1.78.65c-.09.32-.17.63-.25,1L28,96l-.95,5.37,1.89.33c0,.32-.05.65-.08,1H27v5.45h1.92c0,.33,0,.66.08,1l-1.89.33.95,5.37,1.87-.33c.08.32.16.63.25,1l-1.78.65,1.86,5.12,1.76-.64.41.9-1.61.93,2.72,4.72,1.59-.92c.18.28.38.55.57.82l-1.41,1.18,3.51,4.17,1.37-1.15c.23.24.46.49.7.72l-1.14,1.36,4.17,3.5,1.1-1.31.83.59-.85,1.48,4.72,2.72.82-1.42.92.45-.55,1.53L55,142.65l.53-1.47,1,.29L56.24,143l5.36.95.26-1.46,1,.1v1.47h5.45v-1.4l1.07-.08.24,1.37L75,143l-.23-1.29,1-.26.45,1.21,5.12-1.86L81,139.64l1-.46.61,1,4.72-2.72-.58-1,.92-.64.73.88,4.18-3.5-.7-.84.8-.78.83.69,3.5-4.17-.79-.67c.23-.3.44-.61.66-.92l.88.51,2-3.43,16-1.16v-.12a10.18,10.18,0,0,0,7.06-15.61l35.29-47.09,5.65,12.65-1.44.82.86,1.48-.83.59-1.1-1.31-4.18,3.5,1.14,1.36c-.23.23-.46.48-.69.72l-1.37-1.15-3.51,4.17,1.41,1.18-.58.81-1.58-.91-2.73,4.72,1.62.93c-.14.3-.28.6-.41.9l-1.76-.64-1.87,5.12,1.79.65c-.09.32-.18.63-.26,1l-1.87-.33-.94,5.37,1.88.33c0,.32-.05.65-.07,1h-1.93V108h1.93c0,.33,0,.66.07,1l-1.88.33.94,5.37,1.87-.33c.08.32.17.63.26,1l-1.79.65,1.87,5.12,1.76-.64c.13.3.27.6.41.9l-1.62.93,2.73,4.72,1.58-.92c.19.28.38.55.58.82l-1.41,1.18,3.51,4.17,1.37-1.15c.23.24.46.49.69.72l-1.14,1.36,4.18,3.5,1.1-1.31.83.59-.86,1.48,4.72,2.72.83-1.42.92.44-.56,1.54,5.13,1.86.53-1.47,1,.29-.27,1.52,5.37,1,.26-1.46,1.05.1V144h5.45v-1.4l1.07-.08.24,1.37,5.37-1-.23-1.29,1.05-.26.44,1.21,5.13-1.86-.42-1.15,1-.46.61,1,4.72-2.72-.58-1,.91-.64.74.88,4.18-3.5-.71-.84.81-.78.82.69,3.51-4.17-.79-.67.66-.92.88.51,2.73-4.72-.85-.49c.17-.34.32-.69.48-1l.92.33,1.86-5.12-.89-.33c.11-.37.21-.73.31-1.1l.92.16,1-5.37-.92-.16c0-.38.06-.76.09-1.15ZM102,81.2l7.22,21.11-5.83-.13c0-.22,0-.45,0-.68l.91-.16L103.26,96l-.93.16c-.09-.37-.2-.74-.31-1.1l.9-.33-1.87-5.12-.91.33c-.16-.34-.32-.69-.49-1l.85-.49-2.44-4.23Zm1.63,28.09-.29-.05.09-1.15h.94v-4.63l4.72.1a10.28,10.28,0,0,0-4.51,5.82Zm-9.68-6.06a28.1,28.1,0,0,1,0,4.4c0,.26-.05.51-.08.77L70.3,106.24a6.83,6.83,0,0,0-.17-.81l3.47-2.64Zm-18.7-1.66,14.5-11A27.69,27.69,0,0,1,93.78,102ZM111.14,110l-5.34-.49a9,9,0,0,1,3.49-4.63l1.87,3.23.46,1.34A4.2,4.2,0,0,0,111.14,110Zm.69,5.31-2.54,4.4a9,9,0,0,1-3.84-6.22l5.34.49A4,4,0,0,0,111.83,115.3ZM68.39,133.14A27.86,27.86,0,1,1,87.33,87.31L68.78,101.43l-1.76,0a6.56,6.56,0,1,0,2.57,8.79l23.51,2.16a27.73,27.73,0,0,1-5.67,10.94l-16.14,1.17a2.6,2.6,0,0,0,.06-.56,2.7,2.7,0,1,0-.76,1.86l15.63-1.13A27.77,27.77,0,0,1,68.39,133.14Zm32.09-10.8-.83-.48c.17-.34.33-.69.49-1l.91.33,1.87-5.12-.9-.33c.11-.36.22-.73.31-1.1l.93.16.26-1.47.64.06a10.21,10.21,0,0,0,6.07,8.27Zm13.81-1.11a8.85,8.85,0,0,1-3.91-.91l2.53-4.39a3.73,3.73,0,0,0,1.38.27,3.78,3.78,0,0,0,1.39-.27l2.53,4.39A8.86,8.86,0,0,1,114.29,121.23Zm-.53-17.86a4.73,4.73,0,0,1,.53,0,8.81,8.81,0,0,1,3.18.6l-2.41,3.22Zm5.54,16.33-2.54-4.4a3.87,3.87,0,0,0,1.37-2.24l.11-.15h5A8.94,8.94,0,0,1,119.3,119.7Zm3.91-8h-4l2.87-3.83A8.89,8.89,0,0,1,123.21,111.66Zm-4.95-8.78a10.27,10.27,0,0,0-4-.8c-.32,0-.63,0-1,.06l-8-23.28,48.4-23.38Zm94.06,4.65a27.87,27.87,0,1,1-43.83-25l11.53,27a3,3,0,0,0,2.76,1.82,3.11,3.11,0,0,0,1.18-.24,3,3,0,0,0,1.14-.88,3.9,3.9,0,0,0,1-.48,3.63,3.63,0,0,0,1.57-2.35,3.7,3.7,0,0,0-2.9-4.35,3.51,3.51,0,0,0-1,0l-10-23.39a27.1,27.1,0,0,1,8.53-2.09A27.87,27.87,0,0,1,212.32,107.53Z"/><path class="cls-2" d="M70.11,119.06a2.67,2.67,0,1,0-2.68-2.67A2.68,2.68,0,0,0,70.11,119.06Z"/></g></svg>